<svg id="palette" xmlns="http://www.w3.org/2000/svg" width="84.331" height="79" viewBox="0 0 84.331 79">
  <path id="Path_6" data-name="Path 6" d="M31.489,16.813a7.668,7.668,0,0,0,7.906-7.406A7.668,7.668,0,0,0,31.489,2a7.668,7.668,0,0,0-7.906,7.406A7.668,7.668,0,0,0,31.489,16.813ZM52.572,31.625a7.668,7.668,0,0,0,7.906-7.406,7.923,7.923,0,0,0-15.812,0A7.668,7.668,0,0,0,52.572,31.625Zm-34.26-4.937a7.668,7.668,0,0,1-7.906,7.406A7.668,7.668,0,0,1,2.5,26.688a7.668,7.668,0,0,1,7.906-7.406,7.668,7.668,0,0,1,7.906,7.406Zm2.635,29.625a7.668,7.668,0,0,0,7.906-7.406A7.668,7.668,0,0,0,20.947,41.5a7.668,7.668,0,0,0-7.906,7.406A7.668,7.668,0,0,0,20.947,56.313Z" transform="translate(10.677 7.875)" fill="#fffbfb"/>
  <path id="Path_7" data-name="Path 7" d="M84.331,39.5c0,15.553-9.835,12.763-18.8,10.221-5.339-1.516-10.373-2.948-12.824-.346-3.178,3.372-2.5,8.981-1.85,14.417C51.79,71.569,52.686,79,42.166,79,18.878,79,0,61.315,0,39.5S18.878,0,42.166,0,84.331,17.685,84.331,39.5ZM42.166,74.063c3.22,0,3.447-.844,3.452-.869.411-.721.654-2.291.369-5.525-.074-.829-.2-1.827-.322-2.918-.274-2.291-.59-4.962-.622-7.219-.053-3.491.437-7.949,3.711-11.425a10.251,10.251,0,0,1,6.7-3.051,21.167,21.167,0,0,1,6.114.514c1.808.38,3.7.918,5.4,1.4l.148.04c1.824.518,3.468.983,5.023,1.313,3.442.731,4.765.41,5.223.118.2-.128,1.692-1.21,1.692-6.942,0-19.088-16.518-34.562-36.895-34.562S5.271,20.412,5.271,39.5,21.789,74.063,42.166,74.063Z" fill="#fffbfb"/>
</svg>
