<svg xmlns="http://www.w3.org/2000/svg" width="179.778" height="62.55" viewBox="0 0 179.778 62.55">
  <g id="Component_10_1" data-name="Component 10 – 1" transform="translate(2.5 1.002)">
    <path id="Icon_metro-mobile" data-name="Icon metro-mobile" d="M49.681,1.928H10.752c-2.379,0-4.325,1.661-4.325,3.691V57.286c0,2.03,1.946,3.691,4.325,3.691H49.681c2.379,0,4.325-1.661,4.325-3.691V5.619C54.006,3.589,52.059,1.928,49.681,1.928ZM30.216,58.311a2.907,2.907,0,1,1,0-5.741,2.907,2.907,0,1,1,0,5.741ZM49.681,49.9H10.752V9.309H49.681Z" transform="translate(80.582 -1.928)" fill="#fff"/>
    <path id="Icon_awesome-tablet-alt" data-name="Icon awesome-tablet-alt" d="M26.767,0H3.212C1.439,0,0,1.876,0,4.187v36.29c0,2.312,1.439,4.187,3.212,4.187H26.767c1.773,0,3.212-1.876,3.212-4.187V4.187C29.979,1.876,28.541,0,26.767,0ZM14.99,41.873c-1.184,0-2.141-1.247-2.141-2.792s.957-2.792,2.141-2.792,2.141,1.247,2.141,2.792S16.174,41.873,14.99,41.873Zm11.778-9.421a.952.952,0,0,1-.8,1.047H4.015a.952.952,0,0,1-.8-1.047V5.234a.952.952,0,0,1,.8-1.047H25.964a.952.952,0,0,1,.8,1.047Z" transform="translate(147.299 14.384)" fill="#fff"/>
    <g id="Icon_feather-monitor" data-name="Icon feather-monitor" transform="translate(-3 -3.002)">
      <path id="Path_3" data-name="Path 3" d="M10.43,4.5H69.869c4.1,0,7.43,2.863,7.43,6.394V42.867c0,3.532-3.326,6.394-7.43,6.394H10.43C6.326,49.261,3,46.4,3,42.867V10.894C3,7.363,6.326,4.5,10.43,4.5Z" transform="translate(0)" fill="none" stroke="snow" stroke-linecap="round" stroke-linejoin="round" stroke-width="5"/>
      <path id="Path_4" data-name="Path 4" d="M12,31.5H41.719" transform="translate(13.29 30.55)" fill="none" stroke="snow" stroke-linecap="round" stroke-linejoin="round" stroke-width="5"/>
      <path id="Path_5" data-name="Path 5" d="M18,25.5V38.289" transform="translate(22.149 23.761)" fill="none" stroke="snow" stroke-linecap="round" stroke-linejoin="round" stroke-width="5"/>
    </g>
  </g>
</svg>
