<svg xmlns="http://www.w3.org/2000/svg" width="62.983" height="65.554" viewBox="0 0 62.983 65.554">
  <path id="Icon_metro-tools" data-name="Icon metro-tools" d="M66.985,16.1a17.5,17.5,0,0,1-3.4,18.237,14.992,14.992,0,0,1-18.826,2.68L40.42,42.058l3.095,3.3,1.85-1.967a2.317,2.317,0,0,1,3.423,0l15,16.111a2.687,2.687,0,0,1,0,3.64L56.94,70.425a2.317,2.317,0,0,1-3.423,0l-15-16.111a2.687,2.687,0,0,1,0-3.64l1.689-1.8-2.949-3.144L16.517,69.83a4.638,4.638,0,0,1-6.846,0L7.96,68.01a5.378,5.378,0,0,1,0-7.279l23.63-21.043L15.9,22.956l-4.957,0L5.2,13.146,9.819,8.229l9.433,6.139.062,5.16L35.19,36.476l4.619-4.112a17.485,17.485,0,0,1,1.519-21.68A15.061,15.061,0,0,1,58.405,7.023L48.235,17.688l8.56,9.1L66.985,16.1ZM13.636,63.3a2.321,2.321,0,0,0-3.423,0,2.69,2.69,0,0,0,0,3.642,2.321,2.321,0,0,0,3.423,0A2.69,2.69,0,0,0,13.636,63.3Z" transform="translate(-5.203 -5.785)" fill="#fefbfb"/>
</svg>
